<svg xmlns="http://www.w3.org/2000/svg" viewBox="0 0 160 160" role="img" aria-label="Pieter van der Merwe portrait">
  <defs>
    <linearGradient id="bg" x1="0" x2="1" y1="0" y2="1">
      <stop offset="0" stop-color="#f59e0b"/>
      <stop offset="1" stop-color="#1d4ed8"/>
    </linearGradient>
  </defs>
  <rect width="160" height="160" rx="80" fill="url(#bg)"/>
  <path d="M31 144c8-32 27-48 49-48s41 16 49 48" fill="#e0f2fe"/>
  <circle cx="80" cy="68" r="27" fill="#f2c095"/>
  <path d="M51 66c2-25 17-38 37-34 17 4 25 17 22 36-16-10-35-12-59-2z" fill="#334155"/>
  <circle cx="70" cy="70" r="3" fill="#111827"/>
  <circle cx="91" cy="70" r="3" fill="#111827"/>
  <path d="M70 84c7 5 14 5 21 0" fill="none" stroke="#111827" stroke-width="4" stroke-linecap="round"/>
  <path d="M54 96c16 14 36 14 52 0" fill="none" stroke="#dbeafe" stroke-width="9" stroke-linecap="round"/>
</svg>
